<svg xmlns="http://www.w3.org/2000/svg" viewBox="0 0 99.819 73.169">
  <g transform="translate(-58.139 -38.894)">
    <path d="M108.052 106.795c-27.521 0-49.913-15.231-49.913-33.952 0-18.718 22.392-33.949 49.913-33.949 27.521 0 49.906 15.231 49.906 33.949 0 18.721-22.385 33.952-49.906 33.952zm0-59.966c-22.753 0-41.978 11.912-41.978 26.014 0 14.104 19.225 26.017 41.978 26.017 23.144 0 41.978-11.67 41.978-26.017-.001-14.102-19.228-26.014-41.978-26.014z"/>
    <path d="M108.052 89.936c-18.298 0-32.099-7.348-32.099-17.094 0-9.746 13.801-17.094 32.099-17.094 18.301 0 32.099 7.348 32.099 17.094 0 9.746-13.798 17.094-32.099 17.094zm0-27.576c-14.589 0-25.488 5.533-25.488 10.482 0 4.949 10.899 10.482 25.488 10.482s25.488-5.533 25.488-10.482c0-4.949-10.9-10.482-25.488-10.482z"/>
    <ellipse ry="3.393" rx="11.262" cy="72.844" cx="108.051"/>
  </g>
</svg>