<svg xmlns="http://www.w3.org/2000/svg" viewBox="0 0 99.823 74.099">
  <path d="M56.506 4.982c-3.402-.134-6.632 0-9.764.27l3.709 2.458c-9.06 0-16.404 5.875-16.404 13.122s7.344 13.121 16.404 13.121c9.059 0 16.403 5.875 16.403 13.121S59.51 60.195 50.451 60.195c0 0-4.023.335-8.143.646-4.325.326-8.269-1.876-10.134-2.25-5.733-1.152-13.633-2.881-21.544-11.818 2.182 2.76 4.621 5.179 6.517 7.176 5.888 6.198 17.975 10.227 17.975 10.227s10.847 4.029 31.612-.62 26.963-20.764 28.822-31.612C97.415 21.098 80.06 5.912 56.506 4.982z"/>
  <path d="M49.913 67.901C22.392 67.901 0 52.67 0 33.949 0 15.231 22.392 0 49.913 0c27.525 0 49.91 15.231 49.91 33.949 0 18.721-22.385 33.952-49.91 33.952zm0-59.965C27.16 7.936 7.935 19.848 7.935 33.95c0 14.104 19.225 26.017 41.978 26.017S91.894 48.055 91.894 33.95c0-14.102-19.228-26.014-41.981-26.014z"/>
</svg>